<?xml version="1.0" standalone="no"?>
<!DOCTYPE svg PUBLIC "-//W3C//DTD SVG 20010904//EN"
 "http://www.w3.org/TR/2001/REC-SVG-20010904/DTD/svg10.dtd">
<svg version="1.0" xmlns="http://www.w3.org/2000/svg"
 width="232.000000pt" height="218.000000pt" viewBox="0 0 232.000000 218.000000"
 preserveAspectRatio="xMidYMid meet">

<g transform="translate(0.000000,218.000000) scale(0.100000,-0.100000)"
fill="#000000" stroke="none">
<path d="M1114 2169 c-18 -5 -48 -28 -69 -50 -36 -40 -37 -43 -33 -105 4 -58
7 -68 43 -104 l39 -40 -63 -362 c-63 -359 -73 -404 -83 -377 -3 8 -56 159
-117 336 l-112 321 31 44 c42 60 47 102 18 158 -57 111 -196 121 -266 19 -20
-29 -23 -43 -20 -93 4 -56 7 -62 53 -103 l48 -44 -18 -327 c-9 -180 -20 -340
-24 -356 -6 -25 -23 7 -140 249 l-133 278 23 45 c58 117 -7 232 -131 232 -164
0 -217 -221 -68 -285 24 -11 44 -20 46 -20 1 -1 9 -53 17 -116 75 -588 88
-676 102 -699 9 -14 51 -68 93 -120 55 -68 88 -121 117 -188 l40 -93 -43 -100
c-24 -54 -44 -108 -44 -119 0 -35 119 -91 270 -126 86 -21 534 -30 765 -16
143 9 184 15 262 40 113 36 183 75 183 102 0 11 -20 65 -44 119 l-43 100 40
93 c29 67 62 120 118 190 43 53 84 107 93 120 9 15 31 150 60 383 26 198 49
376 52 395 4 30 11 38 49 53 152 63 101 287 -65 287 -124 0 -189 -115 -131
-232 l23 -45 -133 -278 c-117 -242 -134 -274 -140 -249 -4 16 -15 176 -24 356
l-18 327 48 44 c46 41 49 47 53 103 3 50 0 64 -20 93 -61 89 -181 95 -251 12
-48 -58 -42 -147 14 -207 l20 -21 -96 -279 c-53 -154 -106 -305 -117 -338 -14
-39 -23 -54 -28 -45 -4 8 -36 177 -71 376 l-63 363 31 32 c43 46 53 70 53 127
0 44 -5 56 -36 91 -21 23 -51 44 -72 50 -42 11 -46 11 -88 -1z m100 -100 c34
-40 33 -64 -4 -101 -24 -24 -36 -29 -58 -24 -32 8 -72 50 -72 76 0 32 48 80
80 80 19 0 36 -10 54 -31z m-524 -97 c27 -33 25 -68 -5 -97 -53 -54 -148 -4
-129 69 16 65 93 81 134 28z m1048 11 c35 -30 37 -65 7 -101 -34 -40 -75 -43
-110 -7 -30 30 -32 64 -4 99 25 31 76 35 107 9z m-1527 -192 c35 -35 37 -61 7
-96 -32 -37 -83 -37 -115 -1 -26 30 -28 44 -12 80 23 50 78 58 120 17z m1982
18 c24 -11 47 -47 47 -74 0 -29 -46 -68 -80 -68 -24 0 -40 7 -57 27 -31 36
-29 61 6 97 32 32 47 35 84 18z m-1005 -176 c102 -590 109 -633 97 -633 -6 0
-34 16 -61 35 -27 19 -56 35 -64 35 -8 0 -37 -16 -64 -35 -55 -39 -80 -45 -72
-17 2 9 33 180 67 380 35 199 66 362 69 362 3 0 16 -57 28 -127z m-467 -84
c97 -275 189 -547 189 -558 0 -16 -50 -14 -100 4 -59 21 -73 19 -130 -16 -28
-17 -54 -29 -57 -25 -4 3 1 154 11 334 17 326 24 418 32 410 2 -3 27 -69 55
-149z m964 -251 c10 -186 15 -341 12 -345 -4 -3 -30 8 -58 25 -58 37 -68 38
-131 16 -26 -8 -60 -14 -76 -12 l-29 3 78 225 c180 518 172 499 180 460 4 -19
15 -187 24 -372z m-1308 -90 c79 -163 128 -275 122 -279 -6 -3 -32 -4 -60 -1
-41 4 -56 0 -89 -22 l-40 -26 -5 22 c-10 49 -71 578 -66 578 3 0 65 -123 138
-272z m1672 -25 c-21 -164 -38 -299 -39 -301 0 -1 -18 9 -39 24 -33 21 -49 25
-98 23 -45 -2 -57 1 -55 12 5 23 256 539 262 539 4 0 -11 -134 -31 -297z
m-816 -242 c58 -29 82 -35 150 -39 55 -2 98 2 131 12 47 14 51 14 95 -8 74
-38 149 -56 233 -56 71 0 80 -2 110 -29 l32 -28 -63 -77 c-34 -42 -69 -76 -77
-76 -8 0 -61 14 -117 30 -204 61 -307 75 -567 75 -263 0 -368 -15 -579 -78
l-110 -34 -24 26 c-13 14 -43 50 -67 80 l-44 54 32 28 c30 27 39 29 110 29 84
0 159 18 233 56 44 22 48 22 95 8 33 -10 76 -14 129 -12 69 4 91 10 150 40 39
20 72 35 75 34 3 0 36 -16 73 -35z m37 -271 c166 -12 281 -31 428 -71 127 -35
120 -25 77 -124 l-24 -53 -103 33 c-206 67 -410 92 -604 75 -143 -13 -239 -32
-372 -75 l-103 -33 -24 53 c-43 99 -50 89 77 124 136 37 266 60 402 70 56 5
103 9 106 9 3 1 66 -3 140 -8z m173 -241 c56 -11 145 -34 197 -52 l95 -32 27
-55 c15 -30 28 -58 28 -62 0 -3 -28 2 -62 13 -35 10 -119 31 -188 46 -118 26
-140 27 -380 27 -240 0 -262 -1 -380 -27 -69 -15 -153 -36 -187 -46 -35 -11
-63 -16 -63 -13 0 4 13 32 28 62 l27 55 95 32 c170 57 263 71 473 72 153 1
208 -3 290 -20z m82 -218 c55 -11 131 -30 170 -42 80 -24 78 -28 -42 -61 -70
-18 -113 -21 -434 -25 -379 -6 -475 1 -597 39 l-67 21 30 13 c40 17 187 52
294 69 134 22 515 14 646 -14z"/>
</g>
</svg>
